<svg xmlns="http://www.w3.org/2000/svg" viewBox="0 0 147.647 126.39">
  <defs>
    <style>
      .cls-1 {
        fill: #fff;
      }
    </style>
  </defs>
  <path id="パス_13" data-name="パス 13" class="cls-1" d="M140.059,47.448a36.415,36.415,0,0,1,3.742,3.378S131.38,14.4,92.092,2.339A4.043,4.043,0,0,0,95.21,0C90.792,2.546,82.27.676,78.528.416,52.491-1.2,43.708,4.833,43.656,4.833a18.579,18.579,0,0,1,8.263-.26C25.467,10.134,8.421,38.2,9.773,36.274S15.8,30.922,15.8,30.922C6.083,47.188-7.637,67.092,5.251,112.513l.935-2.962c2.546-3.95,11.537,11.589,11.537,11.589a30.537,30.537,0,0,1,.832-10.706c3.638,1.611,4.833,7.8,6.34,9.874,1.611,2.235,2.235,5.976,20.788,6.08,18.6.1,20.216-4.625,22.607-8.055,1.819-2.6,4.158-8.419,5.717-9.2s4.417-.676,6.132-.156c1.611.52,1.715,4.158,3.794,8.055,4.573,8.419,17.566,8.835,24.27,8.679,8.835-.156,13.408-1.455,16.266-3.378s5.457-8.679,5.976-9.614c1.247-2.287,2.079-2.6,3.014-2.6a61.7,61.7,0,0,1,1.559,7.12s2.91-14.551,7.587-7.951C142.45,109.395,155.6,78.369,140.059,47.448ZM115.945,80.6c-.572-.208-1.091-.416-1.715-.624a8.068,8.068,0,0,1,.208-1.091S115.01,79.565,115.945,80.6ZM32.119,92.921a18.6,18.6,0,0,1-1.455,4.209,3.837,3.837,0,0,1-.624.1,27.386,27.386,0,0,0-5.613,2.079A36.515,36.515,0,0,1,32.119,92.921Zm35.755,19.956c-.156.883-1.819,9.718-13.356,10.914-11.485,1.2-19.956.935-24.789-1.819s-6.236-12.577-6.236-12.577a9.788,9.788,0,0,1,.832-5.717s2.391-4.054,14.967-4.313c10.758-.26,20.424.156,27.7,4C70.317,105.081,68.03,112.045,67.874,112.877Zm60.388-3.638s-1.2,9.2-5.665,11.849c-4.261,2.546-16.578,3.794-24.062,2.443-11.381-2.079-12.992-9.874-13.2-10.758-.156-.883-2.443-7.8.883-9.51,7.276-3.794,16.994-4.729,27.7-4.573,10.758.156,13.46,3.742,14.084,4.781C128.938,104.977,128.262,109.239,128.262,109.239Zm-6.5-12.525a79.966,79.966,0,0,0-32.844,2.495c-4.573,1.143-7.432,4.261-9.354,4.677a11.9,11.9,0,0,1-5.457.052c-1.507-.364-5.924-3.95-14.032-5.873-8.211-1.975-22.243-1.663-28.011-1.039C35.705,93.96,42.253,88.3,49.061,81.851a61.469,61.469,0,0,1,14.6,2.287,32.846,32.846,0,0,0-11.641-5.145c7.432-7.172,14.707-14.863,18.5-20.84,0,0-2.495,8.055-6.028,11.953,0,0,19.073-18.449,24.841-29.882a36.258,36.258,0,0,1,4.781,27.024s3.274-6.5,3.742-11.173a85.875,85.875,0,0,0,11.017,22.659c-6.34-.987-14.032-.156-22.191,5.4a63.55,63.55,0,0,1,25-1.871,40.773,40.773,0,0,0,4.521,4.469,8.8,8.8,0,0,1-1.923-4.054c1.351.26,2.754.572,4.158.935a97.3,97.3,0,0,1,8.575,11.433,53.783,53.783,0,0,1,2.65,5.2A15.3,15.3,0,0,0,121.766,96.714Z" transform="translate(-0.005)"/>
</svg>
