<svg xmlns="http://www.w3.org/2000/svg" viewBox="0 0 30 22.5">
  <defs>
    <style>
      .cls-1 {
        fill: #fff;
      }
    </style>
  </defs>
  <path id="パス_4" data-name="パス 4" class="cls-1" d="M30,79.4a3.717,3.717,0,0,1-.481,1.8l-9.472-10.6,9.37-8.2A3.722,3.722,0,0,1,30,64.4v15Zm-15-6.87L28.037,61.123a3.7,3.7,0,0,0-1.787-.472H3.75a3.69,3.69,0,0,0-1.786.472Zm3.635-.69-3.018,2.642a.941.941,0,0,1-1.234,0l-3.018-2.642L1.772,82.574a3.7,3.7,0,0,0,1.977.577h22.5a3.7,3.7,0,0,0,1.977-.577ZM.584,62.409A3.723,3.723,0,0,0,0,64.4v15a3.7,3.7,0,0,0,.482,1.8L9.953,70.6Z" transform="translate(0 -60.651)"/>
</svg>
