<svg xmlns="http://www.w3.org/2000/svg" viewBox="0 0 16 20.817">
  <defs>
    <style>
      .cls-1 {
        fill: #fff;
      }
    </style>
  </defs>
  <g id="locked-padlock" transform="translate(-56.313)">
    <path id="パス_5" data-name="パス 5" class="cls-1" d="M71.178,8.407h-.406v-1.9A6.472,6.472,0,0,0,64.5,0c-.1,0-.285,0-.38,0a6.472,6.472,0,0,0-6.269,6.507v1.9h-.406a1.317,1.317,0,0,0-1.135,1.442V19.37a1.323,1.323,0,0,0,1.135,1.447h13.73a1.323,1.323,0,0,0,1.135-1.447V9.848A1.317,1.317,0,0,0,71.178,8.407ZM65.6,14.6v2.877a.614.614,0,0,1-.606.608H63.632a.614.614,0,0,1-.606-.608V14.6a1.742,1.742,0,0,1,1.1-2.964c.1,0,.285,0,.38,0A1.742,1.742,0,0,1,65.6,14.6Zm2.5-6.193H60.527v-1.9a3.786,3.786,0,1,1,7.572,0v1.9Z" transform="translate(0 0)"/>
  </g>
</svg>
